<svg width="136" height="17" viewBox="0 0 136 17" fill="none" xmlns="http://www.w3.org/2000/svg">
<path d="M6.4873 10.4248H2.50195V7.91113H6.4873C7.10319 7.91113 7.60449 7.81087 7.99121 7.61035C8.37793 7.40267 8.66081 7.11621 8.83984 6.75098C9.01888 6.38574 9.1084 5.97396 9.1084 5.51562C9.1084 5.05013 9.01888 4.61686 8.83984 4.21582C8.66081 3.81478 8.37793 3.49251 7.99121 3.24902C7.60449 3.00553 7.10319 2.88379 6.4873 2.88379H3.61914V16H0.396484V0.359375H6.4873C7.71191 0.359375 8.76107 0.58138 9.63477 1.02539C10.5156 1.46224 11.1888 2.06738 11.6543 2.84082C12.1198 3.61426 12.3525 4.4987 12.3525 5.49414C12.3525 6.50391 12.1198 7.3776 11.6543 8.11523C11.1888 8.85286 10.5156 9.4222 9.63477 9.82324C8.76107 10.2243 7.71191 10.4248 6.4873 10.4248ZM18.5762 0.359375H24.4092C25.6051 0.359375 26.6328 0.538411 27.4922 0.896484C28.3587 1.25456 29.0247 1.78451 29.4902 2.48633C29.9557 3.18815 30.1885 4.05111 30.1885 5.0752C30.1885 5.91309 30.0452 6.63281 29.7588 7.23438C29.4795 7.82878 29.082 8.3265 28.5664 8.72754C28.0579 9.12142 27.46 9.43652 26.7725 9.67285L25.752 10.21H20.6816L20.6602 7.69629H24.4307C24.9964 7.69629 25.4655 7.59603 25.8379 7.39551C26.2103 7.19499 26.4896 6.91569 26.6758 6.55762C26.8691 6.19954 26.9658 5.78418 26.9658 5.31152C26.9658 4.81022 26.8727 4.37695 26.6865 4.01172C26.5003 3.64648 26.2174 3.36719 25.8379 3.17383C25.4583 2.98047 24.9821 2.88379 24.4092 2.88379H21.7988V16H18.5762V0.359375ZM27.3203 16L23.7539 9.02832L27.1592 9.00684L30.7686 15.8496V16H27.3203ZM49.5176 7.81445V8.55566C49.5176 9.74447 49.3564 10.8115 49.0342 11.7568C48.7119 12.7021 48.2572 13.5078 47.6699 14.1738C47.0827 14.8327 46.3809 15.3376 45.5645 15.6885C44.7552 16.0394 43.8564 16.2148 42.8682 16.2148C41.887 16.2148 40.9883 16.0394 40.1719 15.6885C39.3626 15.3376 38.6608 14.8327 38.0664 14.1738C37.472 13.5078 37.0101 12.7021 36.6807 11.7568C36.3584 10.8115 36.1973 9.74447 36.1973 8.55566V7.81445C36.1973 6.61849 36.3584 5.55143 36.6807 4.61328C37.0029 3.66797 37.4577 2.8623 38.0449 2.19629C38.6393 1.53027 39.3411 1.02181 40.1504 0.670898C40.9668 0.319987 41.8656 0.144531 42.8467 0.144531C43.835 0.144531 44.7337 0.319987 45.543 0.670898C46.3594 1.02181 47.0612 1.53027 47.6484 2.19629C48.2428 2.8623 48.7012 3.66797 49.0234 4.61328C49.3529 5.55143 49.5176 6.61849 49.5176 7.81445ZM46.2627 8.55566V7.79297C46.2627 6.96224 46.1875 6.23177 46.0371 5.60156C45.8867 4.97135 45.6647 4.44141 45.3711 4.01172C45.0775 3.58203 44.7194 3.25977 44.2969 3.04492C43.8743 2.82292 43.391 2.71191 42.8467 2.71191C42.3024 2.71191 41.819 2.82292 41.3965 3.04492C40.9811 3.25977 40.6266 3.58203 40.333 4.01172C40.0465 4.44141 39.8281 4.97135 39.6777 5.60156C39.5273 6.23177 39.4521 6.96224 39.4521 7.79297V8.55566C39.4521 9.37923 39.5273 10.1097 39.6777 10.7471C39.8281 11.3773 40.0501 11.9108 40.3438 12.3477C40.6374 12.7773 40.9954 13.1032 41.418 13.3252C41.8405 13.5472 42.3239 13.6582 42.8682 13.6582C43.4124 13.6582 43.8958 13.5472 44.3184 13.3252C44.7409 13.1032 45.0954 12.7773 45.3818 12.3477C45.6683 11.9108 45.8867 11.3773 46.0371 10.7471C46.1875 10.1097 46.2627 9.37923 46.2627 8.55566ZM62.165 11.1982V0.359375H65.377V11.1982C65.377 12.2438 65.1478 13.1426 64.6895 13.8945C64.2311 14.6393 63.6045 15.2122 62.8096 15.6133C62.0218 16.0143 61.1338 16.2148 60.1455 16.2148C59.1214 16.2148 58.2155 16.043 57.4277 15.6992C56.64 15.3555 56.0205 14.8291 55.5693 14.1201C55.1182 13.404 54.8926 12.498 54.8926 11.4023H58.126C58.126 11.9753 58.2048 12.43 58.3623 12.7666C58.527 13.1032 58.7598 13.3431 59.0605 13.4863C59.3613 13.6296 59.723 13.7012 60.1455 13.7012C60.5537 13.7012 60.9082 13.6045 61.209 13.4111C61.5098 13.2178 61.7425 12.9349 61.9072 12.5625C62.0791 12.1901 62.165 11.7354 62.165 11.1982ZM82.6221 13.4863V16H74.2969V13.4863H82.6221ZM75.3496 0.359375V16H72.127V0.359375H75.3496ZM81.5371 6.72949V9.17871H74.2969V6.72949H81.5371ZM82.6113 0.359375V2.88379H74.2969V0.359375H82.6113ZM97.5684 10.8115H100.78C100.716 11.8643 100.426 12.7988 99.9102 13.6152C99.4017 14.4316 98.6891 15.069 97.7725 15.5273C96.863 15.9857 95.7673 16.2148 94.4854 16.2148C93.4827 16.2148 92.584 16.043 91.7891 15.6992C90.9941 15.3483 90.3138 14.847 89.748 14.1953C89.1895 13.5436 88.7633 12.7559 88.4697 11.832C88.1761 10.9082 88.0293 9.87337 88.0293 8.72754V7.64258C88.0293 6.49674 88.1797 5.46191 88.4805 4.53809C88.7884 3.6071 89.2253 2.81576 89.791 2.16406C90.3639 1.51237 91.0479 1.01107 91.8428 0.660156C92.6377 0.309245 93.5257 0.133789 94.5068 0.133789C95.8102 0.133789 96.9095 0.370117 97.8047 0.842773C98.707 1.31543 99.4053 1.96712 99.8994 2.79785C100.401 3.62858 100.701 4.57389 100.802 5.63379H97.5791C97.5433 5.00358 97.418 4.47005 97.2031 4.0332C96.9883 3.58919 96.6624 3.25618 96.2256 3.03418C95.7959 2.80501 95.223 2.69043 94.5068 2.69043C93.9697 2.69043 93.5007 2.79069 93.0996 2.99121C92.6986 3.19173 92.362 3.49609 92.0898 3.9043C91.8177 4.3125 91.6136 4.82812 91.4775 5.45117C91.3486 6.06706 91.2842 6.79036 91.2842 7.62109V8.72754C91.2842 9.53678 91.3451 10.2493 91.4668 10.8652C91.5885 11.474 91.7747 11.9896 92.0254 12.4121C92.2832 12.8275 92.6126 13.1426 93.0137 13.3574C93.4219 13.5651 93.9124 13.6689 94.4854 13.6689C95.1585 13.6689 95.7135 13.5615 96.1504 13.3467C96.5872 13.1318 96.9202 12.8132 97.1494 12.3906C97.3857 11.9681 97.5254 11.4417 97.5684 10.8115ZM113.567 0.359375V16H110.355V0.359375H113.567ZM118.38 0.359375V2.88379H105.618V0.359375H118.38ZM132.188 11.9072C132.188 11.6279 132.145 11.3773 132.059 11.1553C131.98 10.9261 131.829 10.7184 131.607 10.5322C131.385 10.3389 131.074 10.1491 130.673 9.96289C130.272 9.77669 129.753 9.58333 129.115 9.38281C128.406 9.15365 127.733 8.89583 127.096 8.60938C126.465 8.32292 125.907 7.98991 125.42 7.61035C124.94 7.22363 124.561 6.77604 124.281 6.26758C124.009 5.75911 123.873 5.16829 123.873 4.49512C123.873 3.84342 124.016 3.2526 124.303 2.72266C124.589 2.18555 124.99 1.72721 125.506 1.34766C126.021 0.960938 126.63 0.663737 127.332 0.456055C128.041 0.248372 128.818 0.144531 129.663 0.144531C130.816 0.144531 131.822 0.352214 132.682 0.767578C133.541 1.18294 134.207 1.75228 134.68 2.47559C135.16 3.19889 135.399 4.02604 135.399 4.95703H132.198C132.198 4.4987 132.102 4.09766 131.908 3.75391C131.722 3.40299 131.436 3.12728 131.049 2.92676C130.669 2.72624 130.189 2.62598 129.609 2.62598C129.051 2.62598 128.585 2.71191 128.213 2.88379C127.84 3.0485 127.561 3.27409 127.375 3.56055C127.189 3.83984 127.096 4.15495 127.096 4.50586C127.096 4.77083 127.16 5.01074 127.289 5.22559C127.425 5.44043 127.626 5.64095 127.891 5.82715C128.156 6.01335 128.481 6.1888 128.868 6.35352C129.255 6.51823 129.702 6.67936 130.211 6.83691C131.063 7.09473 131.812 7.38477 132.456 7.70703C133.108 8.0293 133.652 8.39095 134.089 8.79199C134.526 9.19303 134.855 9.64779 135.077 10.1562C135.299 10.6647 135.41 11.2412 135.41 11.8857C135.41 12.5661 135.278 13.1748 135.013 13.7119C134.748 14.249 134.365 14.7038 133.863 15.0762C133.362 15.4486 132.764 15.7314 132.069 15.9248C131.375 16.1182 130.598 16.2148 129.738 16.2148C128.965 16.2148 128.202 16.1146 127.45 15.9141C126.698 15.7064 126.014 15.3949 125.398 14.9795C124.79 14.5641 124.303 14.0342 123.938 13.3896C123.572 12.7451 123.39 11.9824 123.39 11.1016H126.623C126.623 11.5885 126.698 12.0003 126.849 12.3369C126.999 12.6735 127.21 12.9456 127.482 13.1533C127.762 13.361 128.091 13.5114 128.471 13.6045C128.857 13.6976 129.28 13.7441 129.738 13.7441C130.297 13.7441 130.755 13.6654 131.113 13.5078C131.479 13.3503 131.747 13.1318 131.919 12.8525C132.098 12.5732 132.188 12.2581 132.188 11.9072Z" fill="#B16CEA"/>
</svg>
