<svg width="84" height="18" viewBox="0 0 84 18" fill="none" xmlns="http://www.w3.org/2000/svg">
<path d="M6.21387 1.20312V14H4.54395V1.20312H6.21387ZM10.3271 1.20312V2.5918H0.439453V1.20312H10.3271ZM12.9375 5.98438V14H11.3115V4.49023H12.8936L12.9375 5.98438ZM15.9082 4.4375L15.8994 5.94922C15.7646 5.91992 15.6357 5.90234 15.5127 5.89648C15.3955 5.88477 15.2607 5.87891 15.1084 5.87891C14.7334 5.87891 14.4023 5.9375 14.1152 6.05469C13.8281 6.17188 13.585 6.33594 13.3857 6.54688C13.1865 6.75781 13.0283 7.00977 12.9111 7.30273C12.7998 7.58984 12.7266 7.90625 12.6914 8.25195L12.2344 8.51562C12.2344 7.94141 12.29 7.40234 12.4014 6.89844C12.5186 6.39453 12.6973 5.94922 12.9375 5.5625C13.1777 5.16992 13.4824 4.86523 13.8516 4.64844C14.2266 4.42578 14.6719 4.31445 15.1875 4.31445C15.3047 4.31445 15.4395 4.3291 15.5918 4.3584C15.7441 4.38184 15.8496 4.4082 15.9082 4.4375ZM23.2295 11.8027V4.49023H24.8643V14H23.3086L23.2295 11.8027ZM23.5371 9.79883L24.2139 9.78125C24.2139 10.4141 24.1465 11 24.0117 11.5391C23.8828 12.0723 23.6719 12.5352 23.3789 12.9277C23.0859 13.3203 22.7021 13.6279 22.2275 13.8506C21.7529 14.0674 21.1758 14.1758 20.4961 14.1758C20.0332 14.1758 19.6084 14.1084 19.2217 13.9736C18.8408 13.8389 18.5127 13.6309 18.2373 13.3496C17.9619 13.0684 17.748 12.7021 17.5957 12.251C17.4492 11.7998 17.376 11.2578 17.376 10.625V4.49023H19.002V10.6426C19.002 11.0703 19.0488 11.4248 19.1426 11.7061C19.2422 11.9814 19.374 12.2012 19.5381 12.3652C19.708 12.5234 19.8955 12.6348 20.1006 12.6992C20.3115 12.7637 20.5283 12.7959 20.751 12.7959C21.4424 12.7959 21.9902 12.6641 22.3945 12.4004C22.7988 12.1309 23.0889 11.7705 23.2646 11.3193C23.4463 10.8623 23.5371 10.3555 23.5371 9.79883ZM32.8799 11.4775C32.8799 11.2432 32.8271 11.0264 32.7217 10.8271C32.6221 10.6221 32.4141 10.4375 32.0977 10.2734C31.7871 10.1035 31.3184 9.95703 30.6914 9.83398C30.1641 9.72266 29.6865 9.59082 29.2588 9.43848C28.8369 9.28613 28.4766 9.10156 28.1777 8.88477C27.8848 8.66797 27.6592 8.41309 27.501 8.12012C27.3428 7.82715 27.2637 7.48438 27.2637 7.0918C27.2637 6.7168 27.3457 6.3623 27.5098 6.02832C27.6797 5.69434 27.917 5.39844 28.2217 5.14062C28.5322 4.88281 28.9043 4.68066 29.3379 4.53418C29.7715 4.3877 30.2549 4.31445 30.7881 4.31445C31.5498 4.31445 32.2002 4.44922 32.7393 4.71875C33.2783 4.98828 33.6914 5.34863 33.9785 5.7998C34.2656 6.24512 34.4092 6.74023 34.4092 7.28516H32.7832C32.7832 7.02148 32.7041 6.7666 32.5459 6.52051C32.3936 6.26855 32.168 6.06055 31.8691 5.89648C31.5762 5.73242 31.2158 5.65039 30.7881 5.65039C30.3369 5.65039 29.9707 5.7207 29.6895 5.86133C29.4141 5.99609 29.2119 6.16895 29.083 6.37988C28.96 6.59082 28.8984 6.81348 28.8984 7.04785C28.8984 7.22363 28.9277 7.38184 28.9863 7.52246C29.0508 7.65723 29.1621 7.7832 29.3203 7.90039C29.4785 8.01172 29.7012 8.11719 29.9883 8.2168C30.2754 8.31641 30.6416 8.41602 31.0869 8.51562C31.8662 8.69141 32.5078 8.90234 33.0117 9.14844C33.5156 9.39453 33.8906 9.69629 34.1367 10.0537C34.3828 10.4111 34.5059 10.8447 34.5059 11.3545C34.5059 11.7705 34.418 12.1514 34.2422 12.4971C34.0723 12.8428 33.8232 13.1416 33.4951 13.3936C33.1729 13.6396 32.7861 13.833 32.335 13.9736C31.8896 14.1084 31.3887 14.1758 30.832 14.1758C29.9941 14.1758 29.2852 14.0264 28.7051 13.7275C28.125 13.4287 27.6855 13.042 27.3867 12.5674C27.0879 12.0928 26.9385 11.5918 26.9385 11.0645H28.5732C28.5967 11.5098 28.7256 11.8643 28.96 12.1279C29.1943 12.3857 29.4814 12.5703 29.8213 12.6816C30.1611 12.7871 30.498 12.8398 30.832 12.8398C31.2773 12.8398 31.6494 12.7812 31.9482 12.6641C32.2529 12.5469 32.4844 12.3857 32.6426 12.1807C32.8008 11.9756 32.8799 11.7412 32.8799 11.4775ZM40.623 4.49023V5.73828H35.4814V4.49023H40.623ZM37.2217 2.17871H38.8477V11.6445C38.8477 11.9668 38.8975 12.21 38.9971 12.374C39.0967 12.5381 39.2256 12.6465 39.3838 12.6992C39.542 12.752 39.7119 12.7783 39.8936 12.7783C40.0283 12.7783 40.1689 12.7666 40.3154 12.7432C40.4678 12.7139 40.582 12.6904 40.6582 12.6729L40.667 14C40.5381 14.041 40.3682 14.0791 40.1572 14.1143C39.9521 14.1553 39.7031 14.1758 39.4102 14.1758C39.0117 14.1758 38.6455 14.0967 38.3115 13.9385C37.9775 13.7803 37.7109 13.5166 37.5117 13.1475C37.3184 12.7725 37.2217 12.2686 37.2217 11.6357V2.17871ZM46.4766 14.1758C45.8145 14.1758 45.2139 14.0645 44.6748 13.8418C44.1416 13.6133 43.6816 13.2939 43.2949 12.8838C42.9141 12.4736 42.6211 11.9873 42.416 11.4248C42.2109 10.8623 42.1084 10.2471 42.1084 9.5791V9.20996C42.1084 8.43652 42.2227 7.74805 42.4512 7.14453C42.6797 6.53516 42.9902 6.01953 43.3828 5.59766C43.7754 5.17578 44.2207 4.85645 44.7188 4.63965C45.2168 4.42285 45.7324 4.31445 46.2656 4.31445C46.9453 4.31445 47.5312 4.43164 48.0234 4.66602C48.5215 4.90039 48.9287 5.22852 49.2451 5.65039C49.5615 6.06641 49.7959 6.55859 49.9482 7.12695C50.1006 7.68945 50.1768 8.30469 50.1768 8.97266V9.70215H43.0752V8.375H48.5508V8.25195C48.5273 7.83008 48.4395 7.41992 48.2871 7.02148C48.1406 6.62305 47.9062 6.29492 47.584 6.03711C47.2617 5.7793 46.8223 5.65039 46.2656 5.65039C45.8965 5.65039 45.5566 5.72949 45.2461 5.8877C44.9355 6.04004 44.6689 6.26855 44.4463 6.57324C44.2236 6.87793 44.0508 7.25 43.9277 7.68945C43.8047 8.12891 43.7432 8.63574 43.7432 9.20996V9.5791C43.7432 10.0303 43.8047 10.4551 43.9277 10.8535C44.0566 11.2461 44.2412 11.5918 44.4814 11.8906C44.7275 12.1895 45.0234 12.4238 45.3691 12.5938C45.7207 12.7637 46.1191 12.8486 46.5645 12.8486C47.1387 12.8486 47.625 12.7314 48.0234 12.4971C48.4219 12.2627 48.7705 11.9492 49.0693 11.5566L50.0537 12.3389C49.8486 12.6494 49.5879 12.9453 49.2715 13.2266C48.9551 13.5078 48.5654 13.7363 48.1025 13.9121C47.6455 14.0879 47.1035 14.1758 46.4766 14.1758ZM58.0693 12.1543V0.5H59.7041V14H58.21L58.0693 12.1543ZM51.6709 9.35059V9.16602C51.6709 8.43945 51.7588 7.78027 51.9346 7.18848C52.1162 6.59082 52.3711 6.07812 52.6992 5.65039C53.0332 5.22266 53.4287 4.89453 53.8857 4.66602C54.3486 4.43164 54.8643 4.31445 55.4326 4.31445C56.0303 4.31445 56.5518 4.41992 56.9971 4.63086C57.4482 4.83594 57.8291 5.1377 58.1396 5.53613C58.4561 5.92871 58.7051 6.40332 58.8867 6.95996C59.0684 7.5166 59.1943 8.14648 59.2646 8.84961V9.6582C59.2002 10.3555 59.0742 10.9824 58.8867 11.5391C58.7051 12.0957 58.4561 12.5703 58.1396 12.9629C57.8291 13.3555 57.4482 13.6572 56.9971 13.8682C56.5459 14.0732 56.0186 14.1758 55.415 14.1758C54.8584 14.1758 54.3486 14.0557 53.8857 13.8154C53.4287 13.5752 53.0332 13.2383 52.6992 12.8047C52.3711 12.3711 52.1162 11.8613 51.9346 11.2754C51.7588 10.6836 51.6709 10.042 51.6709 9.35059ZM53.3057 9.16602V9.35059C53.3057 9.8252 53.3525 10.2705 53.4463 10.6865C53.5459 11.1025 53.6982 11.4688 53.9033 11.7852C54.1084 12.1016 54.3691 12.3506 54.6855 12.5322C55.002 12.708 55.3799 12.7959 55.8193 12.7959C56.3584 12.7959 56.8008 12.6816 57.1465 12.4531C57.498 12.2246 57.7793 11.9229 57.9902 11.5479C58.2012 11.1729 58.3652 10.7656 58.4824 10.3262V8.20801C58.4121 7.88574 58.3096 7.5752 58.1748 7.27637C58.0459 6.97168 57.876 6.70215 57.665 6.46777C57.46 6.22754 57.2051 6.03711 56.9004 5.89648C56.6016 5.75586 56.2471 5.68555 55.8369 5.68555C55.3916 5.68555 55.0078 5.7793 54.6855 5.9668C54.3691 6.14844 54.1084 6.40039 53.9033 6.72266C53.6982 7.03906 53.5459 7.4082 53.4463 7.83008C53.3525 8.24609 53.3057 8.69141 53.3057 9.16602ZM66.6914 0.5H68.3262V12.1543L68.1855 14H66.6914V0.5ZM74.751 9.16602V9.35059C74.751 10.042 74.6689 10.6836 74.5049 11.2754C74.3408 11.8613 74.1006 12.3711 73.7842 12.8047C73.4678 13.2383 73.0811 13.5752 72.624 13.8154C72.167 14.0557 71.6426 14.1758 71.0508 14.1758C70.4473 14.1758 69.917 14.0732 69.46 13.8682C69.0088 13.6572 68.6279 13.3555 68.3174 12.9629C68.0068 12.5703 67.7578 12.0957 67.5703 11.5391C67.3887 10.9824 67.2627 10.3555 67.1924 9.6582V8.84961C67.2627 8.14648 67.3887 7.5166 67.5703 6.95996C67.7578 6.40332 68.0068 5.92871 68.3174 5.53613C68.6279 5.1377 69.0088 4.83594 69.46 4.63086C69.9111 4.41992 70.4355 4.31445 71.0332 4.31445C71.6309 4.31445 72.1611 4.43164 72.624 4.66602C73.0869 4.89453 73.4736 5.22266 73.7842 5.65039C74.1006 6.07812 74.3408 6.59082 74.5049 7.18848C74.6689 7.78027 74.751 8.43945 74.751 9.16602ZM73.1162 9.35059V9.16602C73.1162 8.69141 73.0723 8.24609 72.9844 7.83008C72.8965 7.4082 72.7559 7.03906 72.5625 6.72266C72.3691 6.40039 72.1143 6.14844 71.7979 5.9668C71.4814 5.7793 71.0918 5.68555 70.6289 5.68555C70.2188 5.68555 69.8613 5.75586 69.5566 5.89648C69.2578 6.03711 69.0029 6.22754 68.792 6.46777C68.5811 6.70215 68.4082 6.97168 68.2734 7.27637C68.1445 7.5752 68.0479 7.88574 67.9834 8.20801V10.3262C68.0771 10.7363 68.2295 11.1318 68.4404 11.5127C68.6572 11.8877 68.9443 12.1953 69.3018 12.4355C69.665 12.6758 70.1133 12.7959 70.6465 12.7959C71.0859 12.7959 71.4609 12.708 71.7715 12.5322C72.0879 12.3506 72.3428 12.1016 72.5361 11.7852C72.7354 11.4688 72.8818 11.1025 72.9756 10.6865C73.0693 10.2705 73.1162 9.8252 73.1162 9.35059ZM79.374 13.0156L82.0195 4.49023H83.7598L79.9453 15.4678C79.8574 15.7021 79.7402 15.9541 79.5938 16.2236C79.4531 16.499 79.2715 16.7598 79.0488 17.0059C78.8262 17.252 78.5566 17.4512 78.2402 17.6035C77.9297 17.7617 77.5576 17.8408 77.124 17.8408C76.9951 17.8408 76.8311 17.8232 76.6318 17.7881C76.4326 17.7529 76.292 17.7236 76.21 17.7002L76.2012 16.3818C76.248 16.3877 76.3213 16.3936 76.4209 16.3994C76.5264 16.4111 76.5996 16.417 76.6406 16.417C77.0098 16.417 77.3232 16.3672 77.5811 16.2676C77.8389 16.1738 78.0557 16.0127 78.2314 15.7842C78.4131 15.5615 78.5684 15.2539 78.6973 14.8613L79.374 13.0156ZM77.4316 4.49023L79.9014 11.873L80.3232 13.5869L79.1543 14.1846L75.6562 4.49023H77.4316Z" fill="black"/>
</svg>
